<svg data-v-423bf9ae="" xmlns="http://www.w3.org/2000/svg" viewBox="0 0 517 90" class="iconLeft"><!----><!----><!----><g data-v-423bf9ae="" id="86939632-d39a-484b-983d-ac111f758a32" fill="#ffffff" transform="matrix(5.04201656428025,0,0,5.04201656428025,107.78151408912194,-1.3361320474223746)"><path d="M3.89 13.34C5.35 13.34 7.07 12.59 7.07 10.65C7.07 9.17 5.92 8.31 4.51 7.82C3.11 7.31 2.58 6.91 2.58 6.14C2.58 5.40 3.24 4.87 4.07 4.87C4.80 4.87 5.32 5.13 5.95 5.70L6.91 4.71C6.24 4.08 5.40 3.59 4.07 3.59C2.48 3.59 1.05 4.64 1.05 6.15C1.05 7.86 2.22 8.46 3.76 9.01C4.71 9.35 5.50 9.79 5.50 10.70C5.50 11.61 4.62 12.06 3.81 12.06C2.90 12.06 2.16 11.72 1.49 10.89L0.44 11.90C1.27 12.83 2.35 13.34 3.89 13.34ZM12.32 13.34C14.42 13.34 15.93 12.22 15.93 9.54L15.93 3.82L14.44 3.82L14.44 9.39C14.44 11.29 13.53 12.02 12.32 12.02C11.11 12.02 10.22 11.29 10.22 9.39L10.22 3.82L8.74 3.82L8.74 9.54C8.74 12.22 10.24 13.34 12.32 13.34ZM27.37 8.46C27.37 5.75 25.39 3.59 22.43 3.59C19.45 3.59 17.49 5.75 17.49 8.46C17.49 11.00 19.21 13.05 21.86 13.31L26.47 15.14L27.02 13.77L24.38 12.99C26.24 12.26 27.37 10.51 27.37 8.46ZM19.03 8.46C19.03 6.53 20.34 4.91 22.43 4.91C24.51 4.91 25.83 6.53 25.83 8.46C25.83 10.37 24.51 12.02 22.43 12.02C20.34 12.02 19.03 10.37 19.03 8.46ZM35.58 13.34C37.04 13.34 38.76 12.59 38.76 10.65C38.76 9.17 37.61 8.31 36.20 7.82C34.80 7.31 34.27 6.91 34.27 6.14C34.27 5.40 34.93 4.87 35.76 4.87C36.49 4.87 37.01 5.13 37.64 5.70L38.60 4.71C37.93 4.08 37.09 3.59 35.76 3.59C34.17 3.59 32.74 4.64 32.74 6.15C32.74 7.86 33.91 8.46 35.45 9.01C36.40 9.35 37.19 9.79 37.19 10.70C37.19 11.61 36.31 12.06 35.50 12.06C34.59 12.06 33.85 11.72 33.18 10.89L32.13 11.90C32.96 12.83 34.04 13.34 35.58 13.34ZM43.56 13.34C45.65 13.34 47.10 11.81 47.10 9.84C47.10 7.89 45.65 6.36 43.56 6.36C41.45 6.36 40.00 7.89 40.00 9.84C40.00 11.81 41.45 13.34 43.56 13.34ZM43.56 12.13C42.34 12.13 41.48 11.14 41.48 9.84C41.48 8.56 42.34 7.57 43.56 7.57C44.77 7.57 45.63 8.56 45.63 9.84C45.63 11.14 44.77 12.13 43.56 12.13ZM48.55 13.15L49.96 13.15L49.96 3.24L48.55 3.24ZM54.66 13.33C56.10 13.33 57.62 12.67 57.62 10.31L57.62 6.53L56.20 6.53L56.20 10.32C56.20 11.43 55.66 12.12 54.66 12.12C53.65 12.12 53.11 11.43 53.11 10.32L53.11 6.53L51.70 6.53L51.70 10.31C51.70 12.67 53.21 13.33 54.66 13.33ZM62.45 6.53L61.03 6.53L61.03 4.64L59.63 4.64L59.63 6.53L58.76 6.53L58.76 7.67L59.63 7.67L59.63 13.15L61.05 13.15L61.03 7.67L62.45 7.67ZM64.36 5.26C64.87 5.26 65.28 4.86 65.28 4.36C65.28 3.86 64.87 3.46 64.36 3.46C63.86 3.46 63.45 3.86 63.45 4.36C63.45 4.86 63.86 5.26 64.36 5.26ZM63.69 13.15L65.07 13.15L65.07 6.53L63.69 6.53ZM70.19 13.34C72.28 13.34 73.73 11.81 73.73 9.84C73.73 7.89 72.28 6.36 70.19 6.36C68.08 6.36 66.63 7.89 66.63 9.84C66.63 11.81 68.08 13.34 70.19 13.34ZM70.19 12.13C68.96 12.13 68.10 11.14 68.10 9.84C68.10 8.56 68.96 7.57 70.19 7.57C71.40 7.57 72.26 8.56 72.26 9.84C72.26 11.14 71.40 12.13 70.19 12.13ZM78.58 6.36C77.64 6.36 76.94 6.75 76.53 7.32L76.36 6.53L75.12 6.53L75.12 13.15L76.53 13.15L76.53 9.11C76.65 7.95 77.44 7.57 78.18 7.57C79.20 7.57 79.64 8.30 79.64 9.38L79.64 13.15L81.05 13.15L81.05 9.06C81.05 7 79.73 6.36 78.58 6.36Z"></path></g><!----><g data-v-423bf9ae="" id="cca9a184-11d5-4a64-8529-8f8277eadc33" transform="matrix(2.8125,0,0,2.8125,0,0)" stroke="none" fill="#7fe7ff"><path d="M9.382 8.675h13.943v13.943L32 31.293V0H.707zM22.618 23.325H8.675V9.382L0 .707V32h31.293z"></path></g><!----></svg>